HIERARCHY
ROOT Bip001_Pelvis
{
  OFFSET 34.4345 95.6767 -26.8758
  CHANNELS 6 Xposition Yposition Zposition Zrotation Xrotation Yrotation
  JOINT Bip001_Spine
  {
    OFFSET 1.4188e-005 10.2191 -0.0116013
    CHANNELS 3 Zrotation Xrotation Yrotation
    JOINT Bip001_L_Thigh
    {
      OFFSET 11.0458 -10.2192 0.0116197
      CHANNELS 3 Zrotation Xrotation Yrotation
      JOINT Bip001_L_Calf
      {
        OFFSET -0.707118 -44.0221 0.360014
        CHANNELS 3 Zrotation Xrotation Yrotation
        JOINT Bip001_L_Foot
        {
          OFFSET -0.651902 -40.5938 -3.56146
          CHANNELS 3 Zrotation Xrotation Yrotation
          JOINT Bip001_L_Toe0
          {
            OFFSET 0.0530839 -10.2181 13.1504
            CHANNELS 3 Zrotation Xrotation Yrotation
            End Site
            {
              OFFSET -1.02532e-005 0 7.55606
            }
          }
        }
      }
    }
    JOINT Bip001_R_Thigh
    {
      OFFSET -11.0458 -10.2191 0.0115893
      CHANNELS 3 Zrotation Xrotation Yrotation
      JOINT Bip001_R_Calf
      {
        OFFSET 0.706994 -44.0221 0.35984
        CHANNELS 3 Zrotation Xrotation Yrotation
        JOINT Bip001_R_Foot
        {
          OFFSET 0.651786 -40.5938 -3.5613
          CHANNELS 3 Zrotation Xrotation Yrotation
          JOINT Bip001_R_Toe0
          {
            OFFSET -0.0531479 -10.2181 13.1504
            CHANNELS 3 Zrotation Xrotation Yrotation
            End Site
            {
              OFFSET -1.02894e-005 0 7.55606
            }
          }
        }
      }
    }
    JOINT Bip001_Spine1
    {
      OFFSET 1.87041e-005 14.5736 1.08638
      CHANNELS 3 Zrotation Xrotation Yrotation
      JOINT Bip001_Spine2
      {
        OFFSET 2.24614e-005 14.5058 -1.69078
        CHANNELS 3 Zrotation Xrotation Yrotation
        JOINT Bip001_Neck
        {
          OFFSET 2.20278e-005 15.3945 -0.489414
          CHANNELS 3 Zrotation Xrotation Yrotation
          JOINT Bip001_L_Clavicle
          {
            OFFSET 6.06036 -0.000579998 0.00836775
            CHANNELS 3 Zrotation Xrotation Yrotation
            JOINT Bip001_L_UpperArm
            {
              OFFSET 11.5509 -0.0600302 0.00193952
              CHANNELS 3 Zrotation Xrotation Yrotation
              JOINT Bip001_L_Forearm
              {
                OFFSET 25.9523 0.0806089 -2.15551
                CHANNELS 3 Zrotation Xrotation Yrotation
                JOINT Bip001_L_Hand
                {
                  OFFSET 32.2475 0.153767 1.63968
                  CHANNELS 3 Zrotation Xrotation Yrotation
                  JOINT Bip001_L_Finger0
                  {
                    OFFSET 6.04639 -2.20976 5.90322
                    CHANNELS 3 Zrotation Xrotation Yrotation
                    End Site
                    {
                      OFFSET 4.22375 -1.43895 0.606485
                    }
                  }
                  JOINT Bip001_L_Finger1
                  {
                    OFFSET 11.0826 -0.704819 -0.198153
                    CHANNELS 3 Zrotation Xrotation Yrotation
                    End Site
                    {
                      OFFSET 6.20027 -0.397518 -0.0787166
                    }
                  }
                }
              }
            }
          }
          JOINT Bip001_R_Clavicle
          {
            OFFSET -6.06037 -0.000563197 0.00835105
            CHANNELS 3 Zrotation Xrotation Yrotation
            JOINT Bip001_R_UpperArm
            {
              OFFSET -11.5509 -0.0599978 0.00190698
              CHANNELS 3 Zrotation Xrotation Yrotation
              JOINT Bip001_R_Forearm
              {
                OFFSET -25.9523 0.0806822 -2.15589
                CHANNELS 3 Zrotation Xrotation Yrotation
                JOINT Bip001_R_Hand
                {
                  OFFSET -32.2475 0.153859 1.63989
                  CHANNELS 3 Zrotation Xrotation Yrotation
                  JOINT Bip001_R_Finger0
                  {
                    OFFSET -6.04641 -2.20976 5.90317
                    CHANNELS 3 Zrotation Xrotation Yrotation
                    End Site
                    {
                      OFFSET -4.22376 -1.43895 0.60647
                    }
                  }
                  JOINT Bip001_R_Finger1
                  {
                    OFFSET -11.0826 -0.704794 -0.198182
                    CHANNELS 3 Zrotation Xrotation Yrotation
                    End Site
                    {
                      OFFSET -6.20028 -0.397504 -0.0787333
                    }
                  }
                }
              }
            }
          }
          JOINT Bip001_Head
          {
            OFFSET 1.09673e-005 11.2744 2.05948
            CHANNELS 3 Zrotation Xrotation Yrotation
            End Site
            {
              OFFSET 2.89576e-005 20.8808 -2.77728e-005
            }
          }
        }
      }
    }
  }
}
MOTION
Frames:	10
Frame Time:	0.04
38.8204 89.818 -26.9394 -2.54078 -6.26748 -14.7769 1.36867 3.41646 -2.61732 7.48804 -5.28548 18.2627 -7.03712 38.6075 10.1291 3.35802 -25.0672 0.629227 -0.518229 -3.39991 1.49977 -8.25511 -13.6461 4.83988 -1.27625 37.5479 5.90669 -10.7692 -18.3373 0.403153 5.18063 -15.8919 5.44289 2.90012 6.76566 -5.32982 2.90013 6.76568 -5.32979 8.82673 -3.74676 8.59142 -22.531 9.34704 -14.7248 -70.7436 42.2572 29.9813 16.2132 -1.40682 -41.0565 8.19245 7.04165e-005 -5.6737 -2.04747e-033 2.48481e-016 4.72114e-016 -5.28031e-034 1.73937e-016 1.73937e-016 10.0255 4.98485 -1.57287 -3.29177 -60.7513 -48.566 -43.2103 2.97818 94.5565 -48.7406 -10.8611 6.98411 3.97569e-015 -9.54166e-015 2.38542e-015 -7.95139e-016 -3.18056e-015 1.59028e-015 -10.947 -7.53851 12.5483 
39.5134 89.1631 -26.7589 -2.84697 -6.53078 -15.6233 1.35272 3.46157 -2.46017 7.30239 -5.72017 19.0788 -6.76775 40.5566 10.0387 5.67706 -25.1959 1.03407 0.0379683 -4.55212 1.15588 -8.66132 -14.5791 5.06562 -0.937643 39.5803 6.03539 -11.0125 -18.9725 0.509585 5.33109 -16.2577 5.57853 2.86731 6.86068 -5.01466 2.866 6.86069 -5.01536 8.97262 -3.89907 8.9285 -22.2063 9.59174 -15.2289 -70.656 41.0222 28.7314 16.6341 -1.1185 -38.7928 8.45033 0.25978 -5.35372 -3.18055e-015 -1.98785e-016 9.93923e-017 -9.54166e-015 -2.98177e-016 4.96962e-017 10.5338 5.17017 -1.52389 -3.15416 -63.0497 -45.5201 -40.6637 1.85365 97.1766 -51.1837 -10.912 6.46109 6.55989e-015 3.18055e-015 1.78906e-015 2.08724e-015 0 5.96354e-016 -10.989 -7.51635 12.8994 
40.0727 89.0667 -26.5467 -3.11367 -6.85622 -15.6297 1.30479 3.46075 -2.41362 7.18459 -5.42785 18.6985 -7.16304 40.8961 10.6161 5.50288 -25.9386 1.04486 -0.160852 -4.15097 1.30534 -8.76423 -14.0332 5.36396 -0.964147 39.3444 6.07581 -11.0846 -18.81 0.31817 5.48487 -16.598 5.66519 2.76188 6.86243 -4.9212 2.76238 6.86237 -4.91987 8.63147 -4.21866 9.36723 -21.8208 9.97856 -15.3828 -69.68 38.9969 26.3849 16.6351 -0.866812 -36.0767 9.06069 0.90868 -4.42719 2.75869e-033 7.95139e-016 -1.98785e-016 3.18055e-015 3.97569e-016 -3.97569e-016 12.0195 5.75784 -0.199017 3.71831 -65.4089 -36.6196 -41.3229 0.0659439 100.307 -53.0908 -11.7447 6.73342 1.68967e-015 3.18055e-015 -2.6339e-015 1.04362e-015 6.36111e-015 -2.5842e-015 -10.5242 -6.99659 13.2039 
40.3051 89.3588 -26.2971 -4.04199 -7.35565 -14.4801 1.40864 3.35981 -2.38368 7.73979 -4.54944 18.0742 -7.00771 40.6157 9.90279 5.0778 -26.2045 0.984637 -0.200495 -3.69943 1.27504 -8.2379 -11.7973 4.56801 -1.43435 37.3709 6.26963 -10.8123 -18.0117 0.208812 5.50233 -16.6314 5.6678 2.96983 6.65703 -4.8613 2.96611 6.65706 -4.86213 7.97332 -4.02696 9.33793 -22.2096 10.038 -15.7671 -68.4845 38.3901 24.1758 16.3453 -1.07129 -32.8736 9.50863 1.05242 -4.26827 3.18055e-015 -1.59028e-015 7.95139e-016 3.18055e-015 -2.38542e-015 1.19271e-015 12.7281 6.10934 2.2669 18.874 -64.8358 -19.6455 -42.757 -1.34159 101.94 -54.4435 -12.6275 7.44343 -9.93923e-016 0 2.98177e-016 -1.19271e-015 0 3.08116e-015 -10.4416 -6.19702 13.025 
40.4275 89.8523 -26.1234 -4.90875 -7.68535 -13.0424 1.41396 3.2344 -2.15322 8.56682 -3.66613 17.9954 -6.41331 39.7964 8.1132 4.65926 -26.1567 0.906884 -0.266848 -3.20495 1.15958 -7.67843 -9.43538 3.40709 -1.4313 34.8069 6.05898 -10.3692 -16.8237 0.14554 5.41348 -16.4105 5.57443 2.95431 6.41222 -4.39649 2.95515 6.41227 -4.39632 7.61296 -4.46149 8.62093 -22.1755 10.3525 -15.6932 -66.7835 38.2858 21.5137 15.3637 -2.1413 -30.4706 9.04505 1.86644 -3.80545 3.18055e-015 -1.59028e-015 -7.95139e-016 3.18055e-015 0 -1.59028e-015 11.8811 7.21056 5.19974 38.4707 -59.9108 2.40594 -45.9931 -1.8322 101.622 -57.468 -12.4588 6.75182 -1.59028e-015 -3.18055e-015 -3.97569e-016 -7.95139e-016 0 -7.95139e-016 -10.7359 -5.12878 12.3421 
40.6353 90.4163 -26.1021 -5.22852 -7.78507 -11.8763 1.21325 3.14928 -1.65814 8.80753 -3.14971 17.5167 -5.62349 38.4166 6.97955 3.8257 -25.8405 0.74522 -0.271083 -2.6262 1.02017 -7.4991 -7.62482 1.82334 -1.38856 32.1699 5.66456 -9.67454 -15.6786 0.669363 5.25614 -16.0602 5.48458 2.52307 6.26132 -3.39043 2.52307 6.26133 -3.39043 6.75148 -6.00963 7.43051 -22.0213 11.6314 -15.1088 -63.7214 38.866 19.5206 15.0445 -3.36161 -30.7346 8.03498 1.93424 -3.15706 6.36111e-015 -3.18055e-015 -0 6.36111e-015 -3.18056e-015 -0 10.991 9.59658 9.55067 52.7974 -51.8684 21.9989 -49.1613 0.137633 97.6931 -59.4452 -12.3105 7.21853 -1.59028e-015 3.18055e-015 3.97569e-016 -1.59028e-015 1.59028e-015 1.59028e-015 -10.0864 -4.16015 10.7827 
40.6214 90.9484 -26.2872 -5.67052 -7.79474 -10.9676 0.994915 3.0923 -0.977095 9.31287 -2.96581 16.6861 -4.99743 37.2608 6.37307 3.17068 -25.2667 0.612822 -0.251654 -2.16973 0.764139 -6.75165 -6.07677 1.16866 -1.1794 29.6177 5.30358 -9.30658 -14.3097 0.33088 5.10143 -15.676 5.33545 2.04678 6.1613 -2.01225 2.04679 6.16092 -2.01225 4.65076 -7.8816 5.86372 -21.605 13.031 -13.4473 -58.6511 39.8924 16.8734 14.6234 -3.32203 -31.8357 8.28405 1.53309 -3.84311 -2.20695e-032 -1.59028e-015 -7.95139e-016 3.18055e-015 -1.59028e-015 -7.95139e-016 10.3343 12.3125 16.0582 58.3205 -44.2599 35.939 -52.4801 4.87179 90.0498 -59.8434 -12.5371 7.61312 3.18055e-015 -2.98177e-016 -2.11209e-016 -3.20051e-033 -1.49089e-016 -1.22998e-015 -8.09973 -3.19617 8.32196 
40.281 91.3389 -26.6279 -6.12605 -7.40298 -9.45362 0.697493 3.09588 -0.0624883 10.3889 -3.87841 15.4239 -4.3369 36.9025 5.48582 2.15327 -25.0911 0.438581 -0.372538 -1.53802 0.659113 -5.40525 -5.28085 0.232446 -1.11869 27.7908 5.26434 -9.41105 -13.0156 -0.884184 4.96176 -15.3146 5.16633 1.40143 6.18893 -0.163164 1.40143 6.18883 -0.163161 4.12481 -10.4265 3.50156 -22.1332 15.0239 -11.9864 -53.0422 40.7257 13.6924 13.6355 -4.36207 -33.2622 9.68107 0.887222 -4.78871 -3.18055e-015 6.36111e-015 -1.59028e-015 -3.18055e-015 7.95139e-015 -1.59028e-015 6.83545 15.2808 22.0353 57.3714 -35.6085 46.4471 -49.5537 7.45277 75.4371 -58.0504 -12.6248 7.74362 0 0 -0 -1.59028e-015 1.59028e-015 -7.95139e-016 -8.00694 -1.8653 5.88469 
39.7139 91.6533 -27.225 -6.76435 -6.1299 -6.79981 0.281415 2.9223 0.814649 12.0716 -6.35838 13.3316 -3.92797 37.0914 4.38834 2.84737 -23.9003 0.533108 0.237713 -2.15617 0.0298437 -3.53843 -5.23035 -0.378124 -0.311603 26.0143 4.17622 -9.6775 -11.5393 -2.60183 4.91111 -15.1088 5.00996 0.52238 5.84831 1.61814 0.522383 5.84828 1.61815 5.39914 -12.4289 0.655159 -23.2442 16.2802 -11.2366 -49.0391 40.4507 11.6404 12.6294 -5.90915 -34.6511 10.5525 0.276773 -5.65527 -6.36111e-015 -6.36111e-015 4.77083e-015 -3.18055e-015 -9.54167e-015 1.59028e-015 1.64837 17.0576 26.7746 43.9926 -25.411 50.8032 -41.648 2.40772 54.1935 -54.5613 -13.3855 9.78193 -7.95139e-016 0 1.98785e-016 -3.97569e-016 0 1.59028e-015 -8.87828 -0.228756 3.60384 
38.8348 92.0582 -27.6636 -7.79619 -4.96492 -2.89935 -0.00125405 2.70308 1.33247 14.1062 -9.03323 11.9913 -2.74122 37.3676 1.42735 2.86954 -23.0297 0.508286 0.561311 -2.20539 -0.382511 -1.13424 -4.34401 -1.34886 0.294825 23.0814 3.25969 -9.9655 -9.78204 -4.91705 4.87512 -14.9253 4.81527 -0.0682609 5.40519 2.68059 -0.0664205 5.40527 2.67509 6.28835 -14.335 -2.03074 -24.281 17.1235 -9.30894 -45.8696 40.7147 9.57395 12.045 -6.50825 -35.4544 11.1744 0.0936999 -5.70876 -3.53112e-031 3.18055e-015 6.36111e-015 -0 0 6.36111e-015 -3.17932 18.0326 30.3523 39.2405 -23.8747 57.1642 -53.2125 13.5405 39.2733 -54.1171 -8.96804 11.8155 -1.19271e-015 -1.59028e-015 -3.27995e-015 -3.97569e-016 3.18056e-015 -1.49088e-015 -9.01589 2.11445 1.3559 
